<?xml version="1.0" encoding="utf-8"?>
<!-- Generator: Adobe Illustrator 24.3.0, SVG Export Plug-In . SVG Version: 6.00 Build 0)  -->
<svg version="1.1" id="Ebene_1" xmlns="http://www.w3.org/2000/svg" xmlns:xlink="http://www.w3.org/1999/xlink" x="0px" y="0px"
	 viewBox="0 0 1038.5 282" style="enable-background:new 0 0 1038.5 282;" xml:space="preserve">
<style type="text/css">
	.st0{fill:url(#SVGID_1_);}
	.st1{fill:url(#SVGID_2_);}
	.st2{fill:url(#SVGID_3_);}
	.st3{fill:url(#SVGID_4_);}
	.st4{fill:url(#SVGID_5_);}
	.st5{fill:url(#SVGID_6_);}
	.st6{fill:url(#pfeil1_1_);}
	.st7{fill:url(#SVGID_7_);}
	.st8{fill:url(#SVGID_8_);}
	.st9{fill:currentColor;}
	.st10{fill:url(#SVGID_9_);}
</style>
<g id="logo">
	<g>
		<g>

				<linearGradient id="SVGID_1_" gradientUnits="userSpaceOnUse" x1="154.5215" y1="93.5499" x2="125.6879" y2="69.3556" gradientTransform="matrix(1 0 0 -1 0 283)">
				<stop  offset="0" style="stop-color:#1A86FF"/>
				<stop  offset="3.822792e-02" style="stop-color:#1C90FA"/>
				<stop  offset="0.1585" style="stop-color:#22A9EE"/>
				<stop  offset="0.2934" style="stop-color:#26BCE5"/>
				<stop  offset="0.4489" style="stop-color:#2ACADE"/>
				<stop  offset="0.6435" style="stop-color:#2BD2DA"/>
				<stop  offset="1" style="stop-color:#2CD4D9"/>
			</linearGradient>
			<path class="st0" d="M149,186.8c-4.4,16.2-7.1,25.3-9.7,31.4c-2.7-6-10.9-31.6-10.9-31.6l-6.2,3.2c0,0,5.3,16.1,7.6,22.6
				c4.6,13.1,6.6,15.2,9.6,15.2s5-2.1,9.3-15.3c2.1-6.5,3.5-11,6.4-22C155,190.2,150.9,187.9,149,186.8z"/>

				<linearGradient id="SVGID_2_" gradientUnits="userSpaceOnUse" x1="153.295" y1="215.129" x2="123.5459" y2="190.1666" gradientTransform="matrix(1 0 0 -1 0 283)">
				<stop  offset="0" style="stop-color:#1A86FF"/>
				<stop  offset="1" style="stop-color:#2CD4D9"/>
			</linearGradient>
			<path class="st1" d="M124,92.6c1.6,1,3.3,1.9,4.9,2.9c4.8-16.6,7.9-26,10.7-32.1c2.5,6.1,9.4,32.9,9.4,32.9l6.4-3.7
				c0,0-4.3-16.5-6.5-23.1c-4.2-13.1-6.1-15.4-9.2-15.4c-3,0-5.1,2.2-9.8,15.4c-2.3,6.6-3.9,11.3-7.1,22.6
				C123.2,92.2,123.6,92.4,124,92.6z"/>
		</g>
	</g>
	<g>
		<g>

				<linearGradient id="SVGID_3_" gradientUnits="userSpaceOnUse" x1="-441.1326" y1="176.4395" x2="-469.0836" y2="209.7502" gradientTransform="matrix(4.489700e-11 -1 -1 -4.489700e-11 294.7344 -356.6601)">
				<stop  offset="0" style="stop-color:#1A86FF"/>
				<stop  offset="0.2398" style="stop-color:#1B8AFD"/>
				<stop  offset="0.4607" style="stop-color:#1D95F8"/>
				<stop  offset="0.6742" style="stop-color:#22A7EF"/>
				<stop  offset="0.8818" style="stop-color:#28C2E2"/>
				<stop  offset="1" style="stop-color:#2CD4D9"/>
			</linearGradient>
			<path class="st2" d="M108,128.5c-10.9-18.6-20.1-35.2-23.1-42.6c7.5,2.9,24.5,11.8,43.5,22.6c2-1.2,4.3-2.6,6.7-4
				c-4.1-2.3-8.4-4.7-12.7-7.1c-11-6.1-19.9-10.8-26.6-14c-12.5-6-15.4-6.1-17.6-4c-2.1,2.1-2,5,4.2,17.5
				c3.3,6.5,8.2,15.4,14.5,26.3c2.5,4.3,4.8,8.3,7.1,12C105.5,132.7,106.8,130.5,108,128.5z"/>

				<linearGradient id="SVGID_4_" gradientUnits="userSpaceOnUse" x1="-525.8362" y1="99.4537" x2="-553.0862" y2="131.929" gradientTransform="matrix(4.489700e-11 -1 -1 -4.489700e-11 294.7344 -356.6601)">
				<stop  offset="0" style="stop-color:#1A86FF"/>
				<stop  offset="5.440497e-02" style="stop-color:#1E99F6"/>
				<stop  offset="0.1375" style="stop-color:#23AFEB"/>
				<stop  offset="0.2356" style="stop-color:#27C0E3"/>
				<stop  offset="0.3569" style="stop-color:#2ACBDD"/>
				<stop  offset="0.5272" style="stop-color:#2CD2DA"/>
				<stop  offset="1" style="stop-color:#2CD4D9"/>
			</linearGradient>
			<path class="st3" d="M172.7,153.8c10.3,18.3,18.8,34.5,21.6,41.8c-7.2-3-23-11.8-40.9-22.4c-2,1.2-4.3,2.5-6.7,3.9
				c3.4,2,7,4.1,10.5,6.2c10.9,6.3,19.7,11.3,26.3,14.6c12.2,6.3,15.2,6.6,17.4,4.4c2.1-2.1,2.1-5.2-4-17.8
				c-3.2-6.7-8-15.8-14.2-26.9c-2-3.6-4.1-7.2-6-10.7C175.2,149.4,173.9,151.7,172.7,153.8z"/>
		</g>
	</g>
	<g>
		<g>

				<linearGradient id="SVGID_5_" gradientUnits="userSpaceOnUse" x1="94.0098" y1="153.4789" x2="63.5497" y2="127.9198" gradientTransform="matrix(1 0 0 -1 0 283)">
				<stop  offset="0" style="stop-color:#1A86FF"/>
				<stop  offset="0.1498" style="stop-color:#20A0F2"/>
				<stop  offset="0.3242" style="stop-color:#25B7E7"/>
				<stop  offset="0.5126" style="stop-color:#29C7DF"/>
				<stop  offset="0.7229" style="stop-color:#2BD1DA"/>
				<stop  offset="1" style="stop-color:#2CD4D9"/>
			</linearGradient>
			<path class="st4" d="M93.7,131.2c-0.8-1.4-1.6-2.9-2.4-4.3c-0.3-0.6-0.7-1.2-1-1.8c-9.1,2.5-16.5,4.6-22.1,6.4
				c-13.1,4.2-15.4,6.1-15.4,9.2c0,3,2.2,5.1,15.4,9.8c6.6,2.3,22.6,7.1,22.6,7.1l3.6-6c0,0-26.1-8-32.2-10.8
				C67.7,138.5,79.4,135,93.7,131.2z"/>

				<linearGradient id="SVGID_6_" gradientUnits="userSpaceOnUse" x1="215.9143" y1="156.0348" x2="184.663" y2="129.8118" gradientTransform="matrix(1 0 0 -1 0 283)">
				<stop  offset="0" style="stop-color:#1A86FF"/>
				<stop  offset="1" style="stop-color:#2CD4D9"/>
			</linearGradient>
			<path class="st5" d="M211,131.6c-6.4-2.1-21.7-7-21.7-7l-3.7,6.7c0,0,25.3,7.1,31.3,9.7c-5.6,2.5-17.5,6.3-32.1,10.6
				c0.8,1.3,1.6,2.7,2.3,4c0.4,0.7,0.8,1.4,1.2,2.1c9.3-2.7,16.9-5.1,22.7-7.1c13.1-4.6,15.2-6.6,15.2-9.6
				C226.3,137.9,224.2,135.9,211,131.6z"/>
		</g>
	</g>

		<linearGradient id="pfeil1_1_" gradientUnits="userSpaceOnUse" x1="-442.6194" y1="88.3819" x2="-553.7717" y2="220.8482" gradientTransform="matrix(0 -1 -1 0 294.7344 -356.6601)">
		<stop  offset="0" style="stop-color:#1A86FF"/>
		<stop  offset="1" style="stop-color:#2CD4D9"/>
	</linearGradient>
	<path id="pfeil1" class="st6" d="M119.3,121.4c-2.4,3.9-11.8,19-22.2,37c-7.2,12.4-11,19.3-14.6,26.3c-6.3,12.2-6.6,15.2-4.4,17.4
		c2.1,2.1,5.2,2.1,17.8-4c6.7-3.2,15.8-8,26.9-14.2c18.9-10.5,37.5-21.6,37.7-21.7l0.7-0.4l0.4-0.7c0.1-0.2,11.1-18.6,21.4-37.3
		c6.9-12.5,10.5-19.4,14-26.6c6-12.5,6.1-15.4,4-17.6c-2.1-2.1-5-2-17.5,4.2c-6.5,3.3-15.4,8.2-26.3,14.5
		c-18.5,10.7-36.7,22-36.9,22.1l-0.7,0.4L119.3,121.4z M84.8,195.5c4.5-10.7,21.6-40.3,38.5-67.6l30.4,30.4
		C125.8,174.8,95.6,191.4,84.8,195.5z M194.4,86.2c-4.1,10.7-20.7,40.9-37.1,68.6l-30.5-30.5C154.2,107.5,183.8,90.5,194.4,86.2z"/>
	<g>

			<linearGradient id="SVGID_7_" gradientUnits="userSpaceOnUse" x1="221.6388" y1="296.39" x2="-3.536" y2="107.4458" gradientTransform="matrix(1 0 0 -1 0 283)">
			<stop  offset="0" style="stop-color:#1A86FF"/>
			<stop  offset="1" style="stop-color:#2CD4D9"/>
		</linearGradient>
		<path class="st7" d="M9.8,141C9.8,68.7,68.6,9.9,140.9,9.9c38,0,72.3,16.3,96.3,42.2h-21.7c0,0-2.5,0.6-2.5,3.7
			c0,3.1,2.5,3.7,2.5,3.7h32.3c0,0,3.2-0.1,3.7-0.6c0.6-0.6,0.9-2.6,0.9-2.6V24.2c0,0-0.3-3.1-3.6-3.1c-3.5,0-3.8,3.1-3.8,3.1v21.6
			c-1.4-1.5-2.8-3-4.3-4.5C214.1,14.7,178.7,0,141,0S67.9,14.7,41.3,41.3S0,103.3,0,141c0,17.4,2.7,33.3,8.7,49.1
			c0,0,1.9,3.1,6.2,1.9s3-5.9,3-5.9C12.7,172,9.8,156.8,9.8,141z"/>

			<linearGradient id="SVGID_8_" gradientUnits="userSpaceOnUse" x1="285.3363" y1="178.9096" x2="59.5796" y2="-10.5228" gradientTransform="matrix(1 0 0 -1 0 283)">
			<stop  offset="0" style="stop-color:#1A86FF"/>
			<stop  offset="1" style="stop-color:#2CD4D9"/>
		</linearGradient>
		<path class="st8" d="M271.6,87.9c0,0-1.5-3.5-5.9-1.6c-4.3,1.9-2.9,6.6-2.9,6.6c5.9,14.9,9.1,31.1,9.1,48
			c0,72.3-58.8,131.1-131.1,131.1c-39.5,0-75-17.6-99.1-45.3h22.9c0,0,2.5-0.6,2.5-3.7s-2.5-3.7-2.5-3.7H32.3c0,0-3.2,0.1-3.7,0.6
			c-0.6,0.6-0.9,2.6-0.9,2.6v32.1c0,0,0.3,3.1,3.6,3.1c3.5,0,3.8-3.1,3.8-3.1v-20.2c1.9,2.1,3.9,4.2,5.9,6.3
			c26.6,26.6,62,41.3,99.7,41.3s73.1-14.7,99.7-41.3c26.6-26.6,41.3-62,41.3-99.7C281.9,122.5,278.4,104.6,271.6,87.9z"/>
	</g>
</g>
<g id="text2">
	<g>
		<path class="st9" d="M364.4,107.7l0.7,10.5c9.6-8.2,18.7-12.4,27.6-12.4c9.5,0,15.3,4,17.4,11.9c9.1-8,18.1-11.9,27-11.9
			c6,0,10.6,1.6,13.7,4.8c3.1,3.2,4.7,7.9,4.7,14.1v51.4h-13.4v-47.5c-0.1-4-0.9-6.9-2.4-8.7s-4-2.7-7.6-2.7c-3.1,0-6,0.7-8.9,2.1
			c-2.8,1.4-6.9,4.1-12.4,8v48.8h-13.1v-47.5c0-4.1-0.8-7.1-2.4-8.8c-1.6-1.7-4.1-2.6-7.6-2.6c-3,0-5.9,0.7-8.8,2.1
			c-2.9,1.4-7,4-12.4,7.9v48.9H353v-68.6h11.4V107.7z"/>
		<path class="st9" d="M533.1,107.7l-26.6,71.8c-6.4,16.9-16.9,25.4-31.5,25.6l-1.4-9c5.3-1.6,9.6-3.8,12.7-6.6
			c3.1-2.8,5.6-6.4,7.5-10.7l1-2.5h-2.9c-2.6,0-4.2-1.2-4.8-3.5l-24.3-65.1h14.6l17,49.9c1.1,2.9,1.9,5.7,2.4,8.4h2
			c0.9-2.5,1.9-5.3,2.8-8.4l16.9-49.9L533.1,107.7L533.1,107.7z"/>
		<path class="st9" d="M554.7,77.9v78.6c-0.1,2.9,0.6,5.1,2.1,6.5c1.5,1.5,3.7,2.2,6.7,2.2h6.3l1.5,10.5c-2.7,1.2-7.1,1.8-13.1,1.8
			c-5.3,0-9.6-1.6-12.7-4.7c-3.1-3.1-4.6-7.6-4.6-13.3V77.8L554.7,77.9L554.7,77.9z"/>
		<path class="st9" d="M620.2,148.6h-30.8c0.7,7.1,2.5,11.9,5.6,14.3c3,2.4,8,3.7,15,3.7c6.1,0,14.1-0.6,24-1.7l1.3,9
			c-6.2,2.7-15.2,4.1-27.1,4.1c-12,0-20.5-2.7-25.5-8.2c-5-5.4-7.5-14.8-7.5-28c0-13.3,2.5-22.6,7.4-28c4.9-5.3,13-8,24.4-8
			c10.5,0,18.1,1.9,22.9,5.8c4.8,3.8,7.2,9.6,7.2,17.3C637,142,631.4,148.6,620.2,148.6z M589.3,138h27.3c4.5,0,6.7-3,6.7-9.1
			c-0.1-4.2-1.3-7.2-3.6-8.9s-6.4-2.6-12.2-2.6c-6.7,0-11.4,1.4-14.1,4.3C590.9,124.5,589.5,130,589.3,138z"/>
		<path class="st9" d="M653.3,114.2c5-5.5,13.4-8.3,25.3-8.3c11.9,0,20.3,2.8,25.3,8.3s7.5,14.9,7.5,28s-2.5,22.4-7.5,27.8
			c-5,5.4-13.4,8.2-25.3,8.2c-11.9,0-20.3-2.7-25.3-8.2c-5-5.4-7.5-14.7-7.5-27.8C645.8,129,648.3,119.7,653.3,114.2z M693.2,122.6
			c-2.6-3.5-7.5-5.2-14.6-5.2s-12,1.7-14.6,5.2s-3.9,10-3.9,19.5s1.3,15.9,3.9,19.4c2.6,3.5,7.5,5.2,14.6,5.2s12-1.7,14.6-5.2
			s3.9-9.9,3.9-19.4S695.8,126.1,693.2,122.6z"/>
	</g>
	<g>
		<path class="st9" d="M872.4,175l-1-10.5c-9.3,8.1-18.3,12.2-27.2,12.2c-8.6,0-14.8-2.9-18.6-8.6c-3.8-5.7-5.7-14.8-5.7-27.2
			c0-12.9,2-22.1,6-27.5s10.5-8.1,19.4-8.1c8.6,0,17.2,2.2,25.7,6.6c-0.4-3.1-0.6-7.5-0.6-13.3V76.9h8.8v98.2L872.4,175L872.4,175z
			 M870.4,158v-40c-9.6-3.3-17.4-4.9-23.3-4.9c-6.6,0-11.3,2-14,6s-4,11.2-4,21.7c0,10.6,1.3,17.9,3.9,21.9
			c2.6,4.1,7.2,6.1,13.6,6.1c3.8,0,7.4-0.8,10.8-2.4C860.9,164.9,865.2,162.1,870.4,158z"/>
		<path class="st9" d="M941.7,146.3l-20.8-3.9c-5.3-1-9.2-3-11.6-5.8c-2.4-2.9-3.6-7.1-3.6-12.7c0-7.7,1.9-12.7,5.8-15.1
			c3.9-2.4,10.6-3.5,20.3-3.4c10.3,0.2,19.5,0.9,27.8,2.1l-0.8,6.5c-11.2-0.6-19.8-0.8-25.8-0.8c-7.5-0.1-12.4,0.4-14.9,1.6
			c-2.4,1.2-3.6,4.2-3.6,9.2c0,3.8,0.8,6.5,2.4,8c1.6,1.5,4.3,2.6,8,3.4l20.9,3.9c5.4,1.1,9.4,3.1,11.9,5.8
			c2.5,2.8,3.8,6.9,3.8,12.4c0,7.9-2.1,13.1-6.4,15.6c-4.3,2.4-11.5,3.6-21.8,3.6c-9.3,0-17.9-0.6-25.9-1.8l0.7-6.6
			c7.4,0.7,15.3,0.9,23.7,0.8c8.3-0.1,13.9-0.9,16.8-2.3c2.9-1.4,4.3-4.6,4.3-9.3c0-3.6-0.9-6.2-2.7-7.7
			C948.3,148.1,945.5,147,941.7,146.3z"/>
		<path class="st9" d="M1037.5,167.4l1,6.2c-6.9,2.1-14.3,3.1-22.2,3.1c-11.7,0-19.9-2.7-24.7-8c-4.8-5.3-7.2-14.5-7.2-27.6
			s2.4-22.3,7.2-27.7c4.8-5.4,13-8.1,24.7-8.1c8.3,0,15.3,1,20.9,3.1l-1.4,5.7c-5-0.7-11-1.1-18.1-1.1c-9,0-15.2,2-18.7,6
			s-5.3,11.3-5.3,22.1s1.8,18.1,5.3,22s9.7,5.9,18.7,5.9C1025.5,169,1032.1,168.5,1037.5,167.4z"/>
	</g>
	<g>

			<linearGradient id="SVGID_9_" gradientUnits="userSpaceOnUse" x1="809.1984" y1="178.7408" x2="725.2017" y2="108.2592" gradientTransform="matrix(1 0 0 -1 0 283)">
			<stop  offset="0" style="stop-color:#1A86FF"/>
			<stop  offset="1" style="stop-color:#2CD4D9"/>
		</linearGradient>
		<path class="st10" d="M784.6,87.1h10.2l-45,104.8h-10.2L784.6,87.1z"/>
	</g>
</g>
</svg>
